ply
format ascii 1.0
comment Created by Blender 2.79 (sub 6) - www.blender.org, source file: 'scene.blend'
element vertex 24
property float x
property float y
property float z
property float nx
property float ny
property float nz
element face 12
property list uchar uint vertex_indices
end_header
0.208394 -0.673783 -0.481919 -0.921668 -0.387980 0.000000
0.007122 -0.195649 -1.000689 -0.921668 -0.387980 0.000000
0.208394 -0.673783 -1.000689 -0.921668 -0.387980 0.000000
0.007122 -0.195649 -0.481919 -0.387979 0.921668 0.000000
0.485256 0.005623 -1.000689 -0.387979 0.921668 0.000000
0.007122 -0.195649 -1.000689 -0.387979 0.921668 0.000000
0.485256 0.005623 -0.481919 0.921668 0.387980 0.000000
0.686528 -0.472511 -1.000689 0.921668 0.387980 0.000000
0.485256 0.005623 -1.000689 0.921668 0.387980 0.000000
0.686528 -0.472511 -0.481919 0.387979 -0.921668 0.000000
0.208394 -0.673783 -1.000689 0.387979 -0.921668 0.000000
0.686528 -0.472511 -1.000689 0.387979 -0.921668 0.000000
0.485256 0.005623 -1.000689 0.000000 0.000000 -1.000000
0.208394 -0.673783 -1.000689 0.000000 0.000000 -1.000000
0.007122 -0.195649 -1.000689 0.000000 0.000000 -1.000000
0.485256 0.005623 -0.481919 0.000000 -0.000000 1.000000
0.208394 -0.673783 -0.481919 0.000000 -0.000000 1.000000
0.686528 -0.472511 -0.481919 0.000000 -0.000000 1.000000
0.007122 -0.195649 -0.481919 -0.921668 -0.387980 0.000000
0.485256 0.005623 -0.481919 -0.387979 0.921668 0.000000
0.686528 -0.472511 -0.481919 0.921668 0.387980 -0.000000
0.208394 -0.673783 -0.481919 0.387979 -0.921668 0.000000
0.686528 -0.472511 -1.000689 0.000000 0.000000 -1.000000
0.007122 -0.195649 -0.481919 0.000000 -0.000000 1.000000
3 0 1 2
3 3 4 5
3 6 7 8
3 9 10 11
3 12 13 14
3 15 16 17
3 0 18 1
3 3 19 4
3 6 20 7
3 9 21 10
3 12 22 13
3 15 23 16
